<?xml version="1.0" encoding="UTF-8"?>
<!DOCTYPE svg PUBLIC "-//W3C//DTD SVG 1.1//EN" "http://www.w3.org/Graphics/SVG/1.1/DTD/svg11.dtd">
<svg xmlns="http://www.w3.org/2000/svg" version="1.1" width="600px" height="852px" style="shape-rendering:geometricPrecision; text-rendering:geometricPrecision; image-rendering:optimizeQuality; fill-rule:evenodd; clip-rule:evenodd" xmlns:xlink="http://www.w3.org/1999/xlink">
<g><path style="opacity:1" fill="#f95718" d="M 249.5,-0.5 C 252.5,-0.5 255.5,-0.5 258.5,-0.5C 387.008,54.8025 440.841,152.136 420,291.5C 418.09,302.385 415.923,313.218 413.5,324C 414.626,329.64 417.626,331.14 422.5,328.5C 441.68,301.913 466.68,283.08 497.5,272C 503.62,269.852 507.287,271.852 508.5,278C 502.07,313.257 506.57,347.09 522,379.5C 536.572,407.65 551.906,435.316 568,462.5C 585.375,498.012 595.875,535.346 599.5,574.5C 599.5,590.833 599.5,607.167 599.5,623.5C 593.701,683.745 572.368,737.745 535.5,785.5C 534.761,785.369 534.094,785.536 533.5,786C 532.262,786.69 532.262,787.19 533.5,787.5C 532.488,788.872 531.488,790.205 530.5,791.5C 530.565,791.062 530.399,790.728 530,790.5C 528.961,791.244 528.461,792.244 528.5,793.5C 527.136,795.191 525.803,796.858 524.5,798.5C 524.565,798.062 524.399,797.728 524,797.5C 522.833,798.667 521.667,799.833 520.5,801C 520.728,801.399 521.062,801.565 521.5,801.5C 515.167,808.5 508.5,815.167 501.5,821.5C 501.565,821.062 501.399,820.728 501,820.5C 499.833,821.667 498.667,822.833 497.5,824C 497.728,824.399 498.062,824.565 498.5,824.5C 496.858,825.803 495.191,827.136 493.5,828.5C 493.565,828.062 493.399,827.728 493,827.5C 492.167,828.333 491.333,829.167 490.5,830C 490.728,830.399 491.062,830.565 491.5,830.5C 482.524,837.987 473.191,844.987 463.5,851.5C 461.5,851.5 459.5,851.5 457.5,851.5C 457.5,851.167 457.5,850.833 457.5,850.5C 456.833,849.167 455.833,848.167 454.5,847.5C 454.196,846.85 453.863,846.183 453.5,845.5C 464.5,809.48 463.334,773.813 450,738.5C 441.272,720.044 432.272,701.71 423,683.5C 420.056,676.61 417.389,669.61 415,662.5C 413.263,660.375 411.096,659.542 408.5,660C 401.786,664.018 395.453,668.518 389.5,673.5C 384.697,676.761 380.03,680.928 375.5,686C 375.728,686.399 376.062,686.565 376.5,686.5C 375.833,687.833 374.833,688.833 373.5,689.5C 371.809,690.864 370.142,692.197 368.5,693.5C 367.368,694.354 366.035,694.354 364.5,693.5C 364.262,691.596 363.262,690.262 361.5,689.5C 366.899,652.12 365.065,615.12 356,578.5C 346.545,545.573 330.378,516.573 307.5,491.5C 307.938,491.565 308.272,491.399 308.5,491C 304.905,486.896 300.905,483.396 296.5,480.5C 291.631,477.144 287.964,478.144 285.5,483.5C 289.65,507.967 286.817,531.634 277,554.5C 267.427,575.331 255.594,594.664 241.5,612.5C 240.761,612.369 240.094,612.536 239.5,613C 238.262,613.69 238.262,614.19 239.5,614.5C 239.167,615.5 238.5,616.167 237.5,616.5C 236.094,616.973 235.427,617.973 235.5,619.5C 235.167,620.5 234.5,621.167 233.5,621.5C 231.65,622.242 230.984,623.242 231.5,624.5C 230.488,625.872 229.488,627.205 228.5,628.5C 228.565,628.062 228.399,627.728 228,627.5C 226.961,628.244 226.461,629.244 226.5,630.5C 225.488,631.872 224.488,633.205 223.5,634.5C 223.565,634.062 223.399,633.728 223,633.5C 221.961,634.244 221.461,635.244 221.5,636.5C 220.833,637.833 219.833,638.833 218.5,639.5C 216.65,640.242 215.984,641.242 216.5,642.5C 215.136,644.191 213.803,645.858 212.5,647.5C 212.565,647.062 212.399,646.728 212,646.5C 211.167,647.333 210.333,648.167 209.5,649C 209.728,649.399 210.062,649.565 210.5,649.5C 209.136,651.191 207.803,652.858 206.5,654.5C 206.565,654.062 206.399,653.728 206,653.5C 205.167,654.333 204.333,655.167 203.5,656C 203.728,656.399 204.062,656.565 204.5,656.5C 203.136,658.191 201.803,659.858 200.5,661.5C 200.565,661.062 200.399,660.728 200,660.5C 199.167,661.333 198.333,662.167 197.5,663C 197.728,663.399 198.062,663.565 198.5,663.5C 197.136,665.191 195.803,666.858 194.5,668.5C 194.565,668.062 194.399,667.728 194,667.5C 192.961,668.244 192.461,669.244 192.5,670.5C 190.883,673.784 188.55,676.451 185.5,678.5C 184.094,678.973 183.427,679.973 183.5,681.5C 183.167,682.5 182.5,683.167 181.5,683.5C 180.094,683.973 179.427,684.973 179.5,686.5C 140.991,733.194 129.324,786.027 144.5,845C 144.68,847.802 143.68,849.969 141.5,851.5C 139.5,851.5 137.5,851.5 135.5,851.5C 127.961,846.894 120.961,841.561 114.5,835.5C 114.027,834.094 113.027,833.427 111.5,833.5C 110.167,832.833 109.167,831.833 108.5,830.5C 108.027,829.094 107.027,828.427 105.5,828.5C 104.167,827.833 103.167,826.833 102.5,825.5C 101.415,823.413 99.7488,822.08 97.5,821.5C 90.1667,814.833 83.1667,807.833 76.5,800.5C 76.6277,798.871 75.6277,797.538 73.5,796.5C 71.8333,795.5 70.5,794.167 69.5,792.5C 70.0164,791.242 69.3497,790.242 67.5,789.5C 66.5,789.167 65.8333,788.5 65.5,787.5C 65.573,785.973 64.9063,784.973 63.5,784.5C 26.1194,737.386 4.78602,683.719 -0.5,623.5C -0.5,607.5 -0.5,591.5 -0.5,575.5C 1.69877,555.334 5.5321,535.334 11,515.5C 13.6311,511.371 17.1311,510.538 21.5,513C 32.3956,528.563 44.7289,542.896 58.5,556C 64.3429,559.05 67.6762,557.383 68.5,551C 55.1082,457.024 78.6082,373.858 139,301.5C 160.708,276.794 182.041,251.794 203,226.5C 247.311,171.59 262.978,109.257 250,39.5C 248.089,29.2774 245.922,19.1107 243.5,9C 244.142,4.86336 246.142,1.69669 249.5,-0.5 Z"/></g>
<g><path style="opacity:1" fill="#f65d15" d="M 296.5,480.5 C 300.905,483.396 304.905,486.896 308.5,491C 308.272,491.399 307.938,491.565 307.5,491.5C 303.5,488.167 299.833,484.5 296.5,480.5 Z"/></g>
<g><path style="opacity:1" fill="#fa5c14" d="M 241.5,612.5 C 241.167,613.5 240.5,614.167 239.5,614.5C 238.262,614.19 238.262,613.69 239.5,613C 240.094,612.536 240.761,612.369 241.5,612.5 Z"/></g>
<g><path style="opacity:1" fill="#fa5c16" d="M 237.5,616.5 C 237.573,618.027 236.906,619.027 235.5,619.5C 235.427,617.973 236.094,616.973 237.5,616.5 Z"/></g>
<g><path style="opacity:1" fill="#fa5c14" d="M 233.5,621.5 C 233.573,623.027 232.906,624.027 231.5,624.5C 230.984,623.242 231.65,622.242 233.5,621.5 Z"/></g>
<g><path style="opacity:1" fill="#fa5c16" d="M 228.5,628.5 C 228.167,629.5 227.5,630.167 226.5,630.5C 226.461,629.244 226.961,628.244 228,627.5C 228.399,627.728 228.565,628.062 228.5,628.5 Z"/></g>
<g><path style="opacity:1" fill="#fa5c16" d="M 223.5,634.5 C 223.167,635.5 222.5,636.167 221.5,636.5C 221.461,635.244 221.961,634.244 223,633.5C 223.399,633.728 223.565,634.062 223.5,634.5 Z"/></g>
<g><path style="opacity:1" fill="#fa5c14" d="M 218.5,639.5 C 218.573,641.027 217.906,642.027 216.5,642.5C 215.984,641.242 216.65,640.242 218.5,639.5 Z"/></g>
<g><path style="opacity:1" fill="#fa5c14" d="M 212.5,647.5 C 212.167,648.5 211.5,649.167 210.5,649.5C 210.062,649.565 209.728,649.399 209.5,649C 210.333,648.167 211.167,647.333 212,646.5C 212.399,646.728 212.565,647.062 212.5,647.5 Z"/></g>
<g><path style="opacity:1" fill="#fa5c14" d="M 206.5,654.5 C 206.167,655.5 205.5,656.167 204.5,656.5C 204.062,656.565 203.728,656.399 203.5,656C 204.333,655.167 205.167,654.333 206,653.5C 206.399,653.728 206.565,654.062 206.5,654.5 Z"/></g>
<g><path style="opacity:1" fill="#fa5c14" d="M 200.5,661.5 C 200.167,662.5 199.5,663.167 198.5,663.5C 198.062,663.565 197.728,663.399 197.5,663C 198.333,662.167 199.167,661.333 200,660.5C 200.399,660.728 200.565,661.062 200.5,661.5 Z"/></g>
<g><path style="opacity:1" fill="#fa5c16" d="M 194.5,668.5 C 194.167,669.5 193.5,670.167 192.5,670.5C 192.461,669.244 192.961,668.244 194,667.5C 194.399,667.728 194.565,668.062 194.5,668.5 Z"/></g>
<g><path style="opacity:1" fill="#fa5c19" d="M 389.5,673.5 C 385.5,678.167 381.167,682.5 376.5,686.5C 376.062,686.565 375.728,686.399 375.5,686C 380.03,680.928 384.697,676.761 389.5,673.5 Z"/></g>
<g><path style="opacity:1" fill="#fa5c14" d="M 185.5,678.5 C 185.573,680.027 184.906,681.027 183.5,681.5C 183.427,679.973 184.094,678.973 185.5,678.5 Z"/></g>
<g><path style="opacity:1" fill="#fa5c16" d="M 181.5,683.5 C 181.573,685.027 180.906,686.027 179.5,686.5C 179.427,684.973 180.094,683.973 181.5,683.5 Z"/></g>
<g><path style="opacity:1" fill="#f75d17" d="M 361.5,689.5 C 363.262,690.262 364.262,691.596 364.5,693.5C 362.738,692.738 361.738,691.404 361.5,689.5 Z"/></g>
<g><path style="opacity:1" fill="#f95c15" d="M 373.5,689.5 C 373.033,692.297 371.367,693.631 368.5,693.5C 370.142,692.197 371.809,690.864 373.5,689.5 Z"/></g>
<g><path style="opacity:1" fill="#f75b1a" d="M 63.5,784.5 C 64.9063,784.973 65.573,785.973 65.5,787.5C 64.0937,787.027 63.427,786.027 63.5,784.5 Z"/></g>
<g><path style="opacity:1" fill="#fa5c14" d="M 535.5,785.5 C 535.167,786.5 534.5,787.167 533.5,787.5C 532.262,787.19 532.262,786.69 533.5,786C 534.094,785.536 534.761,785.369 535.5,785.5 Z"/></g>
<g><path style="opacity:1" fill="#f75c18" d="M 67.5,789.5 C 69.3497,790.242 70.0164,791.242 69.5,792.5C 68.0937,792.027 67.427,791.027 67.5,789.5 Z"/></g>
<g><path style="opacity:1" fill="#fa5c16" d="M 530.5,791.5 C 530.167,792.5 529.5,793.167 528.5,793.5C 528.461,792.244 528.961,791.244 530,790.5C 530.399,790.728 530.565,791.062 530.5,791.5 Z"/></g>
<g><path style="opacity:1" fill="#f75c18" d="M 73.5,796.5 C 75.6277,797.538 76.6277,798.871 76.5,800.5C 74.7376,799.738 73.7376,798.404 73.5,796.5 Z"/></g>
<g><path style="opacity:1" fill="#fa5c16" d="M 524.5,798.5 C 523.833,799.833 522.833,800.833 521.5,801.5C 521.062,801.565 520.728,801.399 520.5,801C 521.667,799.833 522.833,798.667 524,797.5C 524.399,797.728 524.565,798.062 524.5,798.5 Z"/></g>
<g><path style="opacity:1" fill="#f65c17" d="M 97.5,821.5 C 99.7488,822.08 101.415,823.413 102.5,825.5C 100.251,824.92 98.5846,823.587 97.5,821.5 Z"/></g>
<g><path style="opacity:1" fill="#fa5c15" d="M 501.5,821.5 C 500.833,822.833 499.833,823.833 498.5,824.5C 498.062,824.565 497.728,824.399 497.5,824C 498.667,822.833 499.833,821.667 501,820.5C 501.399,820.728 501.565,821.062 501.5,821.5 Z"/></g>
<g><path style="opacity:1" fill="#f75d16" d="M 105.5,828.5 C 107.027,828.427 108.027,829.094 108.5,830.5C 106.973,830.573 105.973,829.906 105.5,828.5 Z"/></g>
<g><path style="opacity:1" fill="#fa5c16" d="M 493.5,828.5 C 493.167,829.5 492.5,830.167 491.5,830.5C 491.062,830.565 490.728,830.399 490.5,830C 491.333,829.167 492.167,828.333 493,827.5C 493.399,827.728 493.565,828.062 493.5,828.5 Z"/></g>
<g><path style="opacity:1" fill="#f65a19" d="M 111.5,833.5 C 113.027,833.427 114.027,834.094 114.5,835.5C 112.973,835.573 111.973,834.906 111.5,833.5 Z"/></g>
<g><path style="opacity:1" fill="#f75d18" d="M 454.5,847.5 C 455.833,848.167 456.833,849.167 457.5,850.5C 455.5,850.5 454.5,849.5 454.5,847.5 Z"/></g>
</svg>
